<?xml version="1.0" standalone="no"?>
<!DOCTYPE svg PUBLIC "-//W3C//DTD SVG 20010904//EN"
 "http://www.w3.org/TR/2001/REC-SVG-20010904/DTD/svg10.dtd">
<svg version="1.0" xmlns="http://www.w3.org/2000/svg"
 width="256.000000pt" height="256.000000pt" viewBox="0 0 256.000000 256.000000"
 preserveAspectRatio="xMidYMid meet">
<metadata>
Created by potrace 1.11, written by Peter Selinger 2001-2013
</metadata>
<g transform="translate(0.000000,256.000000) scale(0.100000,-0.100000)"
fill="#000000" stroke="none">
<path d="M1793 2456 c-122 -59 -224 -126 -287 -189 -132 -132 -130 -257 6
-504 l52 -93 16 43 c9 24 36 71 59 106 33 49 41 68 37 89 -6 24 -5 25 7 10 12
-15 17 -11 46 37 85 140 85 267 1 384 -33 47 -34 47 96 -6 7 -2 14 10 18 29 3
18 17 57 31 86 13 28 21 52 17 52 -4 0 -48 -20 -99 -44z"/>
<path d="M737 2173 c-83 -43 -90 -49 -118 -104 -35 -70 -38 -129 -9 -177 11
-18 20 -34 20 -37 0 -2 -24 4 -54 15 l-55 18 15 -41 c8 -23 34 -82 56 -132 53
-114 60 -180 26 -242 -107 -192 -122 -228 -122 -283 -1 -43 6 -66 27 -103 l28
-48 -26 7 c-23 6 -26 4 -21 -12 11 -38 26 -110 26 -130 0 -17 -24 -31 -135
-80 -128 -56 -135 -60 -135 -87 0 -22 4 -28 15 -23 13 5 15 -35 15 -319 0
-229 -3 -331 -12 -344 -6 -10 -8 -26 -5 -35 6 -14 47 -16 426 -16 l420 0 4 83
3 82 2 -82 2 -83 590 0 590 0 0 440 c0 407 -1 440 -17 449 -17 10 5 9 70 -4
13 -2 17 4 17 26 0 23 -5 30 -27 35 -16 3 -36 8 -46 11 -10 2 -32 6 -50 9 -82
11 -113 16 -281 44 -98 16 -181 32 -183 34 -3 3 -1 42 4 87 9 83 4 150 -16
202 -6 15 -14 27 -18 27 -17 -1 -73 -88 -73 -114 0 -15 -8 -59 -17 -99 -9 -40
-16 -75 -15 -78 0 -3 -117 14 -261 38 l-262 44 -180 -80 -180 -79 -8 36 c-17
75 12 191 65 264 10 14 4 33 -39 116 -77 149 -79 220 -11 298 l30 34 -24 67
c-18 55 -23 89 -23 173 0 97 2 110 32 173 18 37 31 67 30 67 -1 -1 -42 -21
-90 -47z m486 -1130 c-7 -2 -21 -2 -30 0 -10 3 -4 5 12 5 17 0 24 -2 18 -5z
m44 -9 c-3 -3 -12 -4 -19 -1 -8 3 -5 6 6 6 11 1 17 -2 13 -5z m102 -10 c10 -9
-66 -3 -79 6 -10 7 -1 8 30 4 25 -4 47 -8 49 -10z m81 -14 c10 -6 2 -7 -25 -3
-49 7 -58 13 -19 13 16 0 36 -5 44 -10z m85 -10 c25 -11 -1 -11 -35 0 -20 6
-21 8 -5 8 11 0 29 -3 40 -8z m85 -10 c20 -6 21 -8 5 -8 -11 0 -29 3 -40 8
-25 11 1 11 35 0z m73 -17 c-7 -2 -21 -2 -30 0 -10 3 -4 5 12 5 17 0 24 -2 18
-5z m127 -13 c20 -6 21 -8 5 -8 -11 0 -31 4 -45 8 -20 6 -21 8 -5 8 11 0 31
-4 45 -8z m57 -6 c-3 -3 -12 -4 -19 -1 -8 3 -5 6 6 6 11 1 17 -2 13 -5z m218
-31 c72 -9 123 -19 115 -20 -21 -5 -301 35 -309 43 -3 4 10 4 29 1 19 -4 94
-14 165 -24z m162 -29 c-3 -3 -12 -4 -19 -1 -8 3 -5 6 6 6 11 1 17 -2 13 -5z
m-1130 -356 c-3 -8 -6 -5 -6 6 -1 11 2 17 5 13 3 -3 4 -12 1 -19z m1140 -84
c-3 -3 -12 -4 -19 -1 -8 3 -5 6 6 6 11 1 17 -2 13 -5z m-50 -10 c-3 -3 -12 -4
-19 -1 -8 3 -5 6 6 6 11 1 17 -2 13 -5z m-164 -31 c-7 -2 -19 -2 -25 0 -7 3
-2 5 12 5 14 0 19 -2 13 -5z m-156 -29 c-3 -3 -12 -4 -19 -1 -8 3 -5 6 6 6 11
1 17 -2 13 -5z m-54 -11 c-7 -2 -19 -2 -25 0 -7 3 -2 5 12 5 14 0 19 -2 13 -5z
m-116 -19 c-3 -3 -12 -4 -19 -1 -8 3 -5 6 6 6 11 1 17 -2 13 -5z m-264 -51
c-7 -2 -19 -2 -25 0 -7 3 -2 5 12 5 14 0 19 -2 13 -5z m-50 -10 c-7 -2 -19 -2
-25 0 -7 3 -2 5 12 5 14 0 19 -2 13 -5z m-46 -9 c-3 -3 -12 -4 -19 -1 -8 3 -5
6 6 6 11 1 17 -2 13 -5z m-240 -26 c-3 -8 -6 -5 -6 6 -1 11 2 17 5 13 3 -3 4
-12 1 -19z m126 5 c-7 -2 -19 -2 -25 0 -7 3 -2 5 12 5 14 0 19 -2 13 -5z
m-126 -55 c-3 -7 -5 -2 -5 12 0 14 2 19 5 13 2 -7 2 -19 0 -25z"/>
<path d="M2031 1869 c-13 -28 -20 -53 -18 -56 8 -8 68 27 74 43 6 16 -15 64
-27 64 -4 0 -17 -23 -29 -51z"/>
<path d="M2098 1704 c-107 -71 -115 -135 -24 -204 29 -22 58 -51 64 -65 16
-35 15 -108 -2 -173 -14 -52 -14 -53 7 -46 48 14 137 68 153 92 25 39 12 80
-60 187 -69 102 -82 140 -73 206 3 21 2 39 -3 39 -4 0 -32 -16 -62 -36z"/>
<path d="M420 1601 c28 -53 5 -121 -84 -250 -89 -130 -76 -176 64 -239 36 -16
75 -33 88 -37 l23 -7 -17 34 c-11 20 -18 55 -18 90 -1 49 6 70 47 148 73 139
65 182 -43 248 -62 37 -75 40 -60 13z"/>
<path d="M2388 1514 c-33 -17 -34 -27 -8 -74 l19 -35 1 33 c0 18 7 46 15 62
17 34 12 36 -27 14z"/>
<path d="M161 1399 c7 -13 18 -42 25 -64 l12 -40 17 39 c9 21 15 39 13 40 -2
2 -20 13 -42 26 l-38 23 13 -24z"/>
<path d="M2355 1056 c-43 -20 -75 -55 -75 -82 0 -8 86 56 111 82 28 29 26 29
-36 0z"/>
<path d="M160 965 c0 -5 149 -125 154 -125 2 0 -4 15 -13 34 -12 25 -32 42
-78 65 -35 17 -63 29 -63 26z"/>
</g>
</svg>
